PathFileType	4	(x/y/z)	S09_PSF_T07
DataRate	CameraRate	NumFrames	NumMarkers	Units	OrigDataRate	OrigDataStartFrame	OrigNumFrames
240	240	9	51	mm	240	172	456
Frame#	Time	Sternum			R.Acromium			L.Acromium			Top.Head			R.ASIS			L.ASIS			R.PSIS			L.PSIS			R.Great.Tro			L.Great.Tro			R.Iliac.Crest			L.Iliac.Crest			V.Sacral			R.Thigh.Upper.Post			R.Thigh.Lower.Ant			R.Thigh.Lower.Post			R.Thigh.Upper.Ant			R.Knee.Lat			R.Knee.Med			R.Shank.Upper.Post			R.Shank.Lower.Ant			R.Shank.Lower.Post			R.Shank.Upper.Ant			R.Ankle.Lat			R.Ankle.Med			R.Heel.Upper			R.Heel.Med			R.Heel.Lat			R.Toe.Lat			R.Toe.Med			R.Toe.Tip			L.Thigh.Upper.Post			L.Thigh.Lower.Ant			L.Thigh.Lower.Post			L.Thigh.Upper.Ant			L.Knee.Lat			L.Knee.Med			L.Shank.Upper.Post			L.Shank.Lower.Ant			L.Shank.Lower.Post			L.Shank.Upper.Ant			L.Ankle.Lat			L.Ankle.Med			L.Heel.Upper			L.Heel.Med			L.Heel.Lat			L.Toe.Lat			L.Toe.Med			L.Toe.Tip			Cervical.Spine			Back			
		X1	Y1	Z1	X2	Y2	Z2	X3	Y3	Z3	X4	Y4	Z4	X5	Y5	Z5	X6	Y6	Z6	X7	Y7	Z7	X8	Y8	Z8	X9	Y9	Z9	X10	Y10	Z10	X11	Y11	Z11	X12	Y12	Z12	X13	Y13	Z13	X14	Y14	Z14	X15	Y15	Z15	X16	Y16	Z16	X17	Y17	Z17	X18	Y18	Z18	X19	Y19	Z19	X20	Y20	Z20	X21	Y21	Z21	X22	Y22	Z22	X23	Y23	Z23	X24	Y24	Z24	X25	Y25	Z25	X26	Y26	Z26	X27	Y27	Z27	X28	Y28	Z28	X29	Y29	Z29	X30	Y30	Z30	X31	Y31	Z31	X32	Y32	Z32	X33	Y33	Z33	X34	Y34	Z34	X35	Y35	Z35	X36	Y36	Z36	X37	Y37	Z37	X38	Y38	Z38	X39	Y39	Z39	X40	Y40	Z40	X41	Y41	Z41	X42	Y42	Z42	X43	Y43	Z43	X44	Y44	Z44	X45	Y45	Z45	X46	Y46	Z46	X47	Y47	Z47	X48	Y48	Z48	X49	Y49	Z49	X50	Y50	Z50	X51	Y51	Z51	

172	0.7125	-596.56	1162.6	367.4	-765.22	1399.1	522.88	-744.57	1398.2	207.03	-716.5	1708.5	360.34	-619.16	1001.9	463.18	-653.92	985.21	220.65	-852.81	1007	422.4	-855.86	1011.7	332.36	-674.52	914.72	547.39	-750.86	895.4	165.36	-713.2	1076.8	520.48	-766.1	1079.9	199.72	-873	974.22	375.04	-594.74	672.94	516.63	-502.69	604.21	457.16	-574.39	585.61	484.83	-528.09	685.82	492.4	-500.6	526.98	453.48	-527.4	515.49	333.76	-539.87	341.78	468.96	-465.73	292.7	447.98	-531.11	266.04	458.95	-479.76	364.58	460.51	-480.35	89.85	438.29	-462.12	103.77	348.04	-543.97	73.834	389.09	-531.77	42.753	360.24	-538.77	43.384	425	-375.57	44.637	470.27	-333.41	52.61	363.12	-287.14	74.935	406.41	-861.71	664.5	243.15	-808.66	549.28	225.95	-866.58	575.44	259.9	-803.13	637.12	205.69	-848.03	481.71	237.95	-796.07	478.44	363.51	-963.93	406.79	235.17	-971.95	297.07	245.9	-1012.8	347.94	246.73	-923.13	357.21	235.98	-1130	181.5	278.06	-1110.6	170.94	367.58	-1207.3	192.35	336.02	-1207.8	169.78	372.11	-1226.9	167.51	313.04	-1102.5	55.307	252.85	-1057.6	47.702	360.15	-1016.3	40.312	300.33	-831.28	1446.5	371.82	-864.97	1175.2	353.47
173	0.71667	-590.5	1163.4	367.95	-759.58	1399.7	523.24	-738.87	1398.6	207.39	-711.08	1709	360.44	-612.95	1002.8	463.72	-647.48	985.52	221.26	-846.57	1007.5	422.63	-849.51	1011.8	332.54	-668.28	915.81	547.98	-744.03	895.3	165.91	-707.11	1077.7	520.85	-759.74	1080	200.01	-866.6	974.39	375.33	-588.51	673.72	517.28	-496.77	604.89	457.5	-568.36	586.32	485.54	-521.96	686.53	492.76	-495.12	527.14	453.68	-521.67	515.96	334.18	-536.18	342.14	469.48	-462.61	292.36	448.11	-528.21	266.34	459.36	-475.87	364.36	460.77	-479.65	89.792	438.32	-461.4	103.52	348	-543.55	74.075	389.15	-531.56	42.954	360.3	-538.51	43.606	425.05	-375.27	44.145	470.33	-333.06	51.501	362.95	-286.51	73.401	406.26	-853.56	663.67	243.26	-800.09	548.83	225.08	-857.86	574.5	259.59	-795.14	636.79	205.28	-839.16	481.44	236.73	-786.3	477.25	362.06	-955.62	408.15	234.24	-965.07	298.45	244.44	-1005.2	349.9	245.71	-915.51	358.02	234.58	-1124.4	184.55	276.85	-1104.7	173.79	366.21	-1200.6	197.92	335.14	-1201.7	175.83	371.47	-1221.1	173.59	312.49	-1101.1	56.927	252.63	-1056.1	48.695	359.83	-1015.8	40.013	300.09	-825.66	1446.9	372.11	-858.86	1175.5	353.86
174	0.72083	-584.48	1164.3	368.49	-753.93	1400.4	523.59	-733.18	1399.1	207.75	-705.66	1709.5	360.53	-606.8	1003.7	464.28	-641.1	985.85	221.89	-840.38	1008	422.83	-843.21	1011.8	332.7	-662.13	916.9	548.57	-737.22	895.22	166.47	-701.1	1078.5	521.22	-753.41	1080.1	200.29	-860.25	974.59	375.59	-582.43	674.46	517.98	-491	605.51	457.9	-562.5	587.01	486.26	-515.98	687.17	493.17	-489.82	527.25	453.95	-516.01	516.42	334.63	-532.65	342.47	470	-459.64	292.02	448.27	-525.47	266.62	459.75	-472.15	364.13	461.07	-479.04	89.745	438.35	-460.78	103.3	347.97	-543.18	74.283	389.19	-531.38	43.132	360.35	-538.3	43.801	425.1	-375.02	43.736	470.4	-332.77	50.527	362.81	-285.97	72.033	406.14	-845.32	662.8	243.32	-791.38	548.38	224.13	-849.02	573.52	259.19	-787.07	636.46	204.81	-830.12	481.17	235.43	-776.34	476.06	360.52	-947.09	409.51	233.28	-957.95	299.86	242.92	-997.36	351.85	244.65	-907.67	358.84	233.11	-1118.6	187.64	275.62	-1098.6	176.66	364.83	-1193.5	203.58	334.22	-1195.1	181.98	370.79	-1215	179.8	311.88	-1099.7	58.714	252.42	-1054.4	49.81	359.48	-1015.2	39.687	299.83	-820.04	1447.2	372.4	-852.76	1175.8	354.25
175	0.725	-578.49	1165.2	369.03	-748.28	1401.1	523.93	-727.51	1399.6	208.1	-700.24	1710.1	360.63	-600.7	1004.6	464.86	-634.76	986.2	222.53	-834.25	1008.5	422.99	-836.96	1011.9	332.82	-656.05	918	549.15	-730.45	895.15	167.03	-695.16	1079.4	521.58	-747.11	1080.2	200.57	-853.95	974.82	375.82	-576.51	675.17	518.7	-485.4	606.05	458.34	-556.83	587.66	487	-510.13	687.75	493.64	-484.7	527.32	454.27	-510.46	516.86	335.09	-529.28	342.78	470.49	-456.82	291.66	448.46	-522.88	266.89	460.12	-468.59	363.88	461.38	-478.51	89.705	438.38	-460.24	103.1	347.94	-542.86	74.462	389.23	-531.22	43.286	360.39	-538.11	43.969	425.14	-374.82	43.399	470.48	-332.54	49.673	362.69	-285.51	70.817	406.06	-837.01	661.89	243.31	-782.54	547.94	223.12	-840.06	572.51	258.71	-778.91	636.13	204.27	-820.93	480.9	234.06	-766.21	474.87	358.9	-938.34	410.87	232.28	-950.61	301.29	241.36	-989.31	353.82	243.58	-899.63	359.68	231.59	-1112.5	190.74	274.35	-1092.1	179.52	363.42	-1186	209.3	333.26	-1188.2	188.2	370.06	-1208.4	186.13	311.22	-1098	60.676	252.19	-1052.5	51.056	359.1	-1014.5	39.337	299.52	-814.42	1447.6	372.68	-846.69	1176.2	354.62
176	0.72917	-572.54	1166	369.55	-742.62	1401.8	524.26	-721.86	1400.2	208.45	-694.83	1710.6	360.73	-594.66	1005.6	465.46	-628.49	986.56	223.19	-828.17	1009.1	423.14	-830.78	1012.1	332.93	-650.05	919.1	549.72	-723.71	895.11	167.6	-689.29	1080.3	521.94	-740.85	1080.3	200.84	-847.72	975.07	376.03	-570.76	675.82	519.43	-479.97	606.52	458.81	-551.35	588.26	487.73	-504.44	688.25	494.14	-479.77	527.34	454.64	-505.06	517.28	335.57	-526.08	343.06	470.95	-454.15	291.3	448.66	-520.43	267.15	460.46	-465.2	363.61	461.72	-478.05	89.672	438.4	-459.77	102.93	347.92	-542.59	74.613	389.25	-531.09	43.418	360.43	-537.95	44.113	425.18	-374.66	43.124	470.57	-332.35	48.928	362.59	-285.12	69.738	406	-828.63	660.96	243.24	-773.59	547.5	222.04	-831.01	571.47	258.15	-770.67	635.8	203.68	-811.59	480.64	232.62	-755.92	473.69	357.21	-929.38	412.23	231.26	-943.03	302.74	239.75	-981.03	355.78	242.48	-891.37	360.54	230.02	-1106	193.87	273.05	-1085.4	182.37	362.02	-1178	215.08	332.26	-1180.9	194.48	369.27	-1201.4	192.54	310.49	-1096.1	62.818	251.94	-1050.4	52.437	358.7	-1013.7	38.968	299.16	-808.79	1448	372.95	-840.65	1176.7	354.98
177	0.73333	-566.63	1166.9	370.07	-736.95	1402.5	524.58	-716.23	1400.8	208.8	-689.42	1711.2	360.83	-588.67	1006.5	466.07	-622.27	986.94	223.86	-822.14	1009.7	423.27	-824.65	1012.2	333.03	-644.11	920.19	550.28	-717.02	895.08	168.17	-683.48	1081.2	522.3	-734.64	1080.5	201.11	-841.54	975.34	376.23	-565.18	676.43	520.18	-474.73	606.89	459.32	-546.09	588.82	488.44	-498.9	688.66	494.68	-475.03	527.32	455.05	-499.85	517.68	336.05	-523.04	343.33	471.38	-451.62	290.94	448.88	-518.13	267.39	460.76	-461.97	363.34	462.07	-477.65	89.646	438.42	-459.36	102.77	347.89	-542.35	74.742	389.27	-530.97	43.53	360.46	-537.82	44.235	425.2	-374.54	42.902	470.66	-332.19	48.278	362.5	-284.79	68.784	405.96	-820.19	660	243.11	-764.53	547.08	220.9	-821.86	570.41	257.51	-762.37	635.47	203.04	-802.12	480.38	231.13	-745.48	472.53	355.46	-920.22	413.59	230.22	-935.23	304.22	238.12	-972.53	357.73	241.37	-882.91	361.41	228.42	-1099.2	197.01	271.72	-1078.4	185.22	360.61	-1169.7	220.88	331.2	-1173.2	200.79	368.43	-1193.9	199.04	309.69	-1094	65.142	251.68	-1048.2	53.957	358.26	-1012.7	38.585	298.77	-803.17	1448.5	373.21	-834.64	1177.1	355.32
178	0.7375	-560.76	1167.9	370.58	-731.28	1403.3	524.89	-710.62	1401.4	209.14	-684.02	1711.9	360.94	-582.75	1007.5	466.7	-616.12	987.32	224.54	-816.17	1010.3	423.39	-818.59	1012.3	333.12	-638.22	921.27	550.84	-710.38	895.07	168.76	-677.74	1082.1	522.67	-728.48	1080.6	201.37	-835.43	975.63	376.41	-559.78	676.98	520.91	-469.67	607.17	459.84	-541.04	589.33	489.12	-493.52	688.97	495.25	-470.49	527.26	455.47	-494.85	518.05	336.53	-520.16	343.58	471.76	-449.23	290.57	449.11	-515.96	267.62	461.02	-458.9	363.05	462.42	-477.31	89.626	438.42	-459.02	102.63	347.87	-542.15	74.85	389.28	-530.87	43.624	360.49	-537.71	44.339	425.22	-374.45	42.725	470.74	-332.07	47.711	362.43	-284.52	67.942	405.94	-811.69	659.02	242.91	-755.37	546.67	219.71	-812.62	569.32	256.8	-754	635.15	202.34	-792.52	480.13	229.58	-734.91	471.39	353.65	-910.85	414.94	229.15	-927.2	305.71	236.47	-963.81	359.68	240.25	-874.25	362.29	226.78	-1092.2	200.15	270.38	-1071.1	188.04	359.21	-1160.9	226.7	330.1	-1165	207.1	367.52	-1186	205.57	308.83	-1091.6	67.646	251.38	-1045.7	55.614	357.78	-1011.6	38.199	298.32	-797.55	1448.9	373.47	-828.66	1177.7	355.65
179	0.74167	-554.92	1168.8	371.07	-725.6	1404.1	525.2	-705.02	1402	209.46	-678.62	1712.5	361.04	-576.88	1008.5	467.34	-610.04	987.72	225.22	-810.25	1010.9	423.5	-812.59	1012.5	333.21	-632.4	922.34	551.39	-703.8	895.08	169.35	-672.05	1083.1	523.05	-722.38	1080.8	201.63	-829.38	975.95	376.6	-554.56	677.47	521.63	-464.81	607.35	460.37	-536.22	589.79	489.76	-488.3	689.19	495.82	-466.13	527.16	455.92	-490.1	518.39	336.99	-517.44	343.81	472.1	-446.98	290.21	449.35	-513.93	267.84	461.25	-455.98	362.76	462.77	-477.02	89.61	438.42	-458.73	102.5	347.84	-541.98	74.94	389.28	-530.79	43.701	360.51	-537.62	44.425	425.23	-374.38	42.585	470.82	-331.97	47.217	362.36	-284.3	67.2	405.93	-803.15	658.02	242.67	-746.12	546.28	218.48	-803.31	568.23	256.01	-745.58	634.84	201.61	-782.79	479.9	227.98	-724.2	470.3	351.81	-901.3	416.28	228.07	-918.96	307.21	234.8	-954.88	361.61	239.12	-865.39	363.19	225.12	-1084.8	203.29	269.01	-1063.6	190.85	357.83	-1151.7	232.5	328.95	-1156.5	213.39	366.55	-1177.7	212.13	307.89	-1088.9	70.327	251.06	-1043	57.403	357.26	-1010.2	37.82	297.83	-791.93	1449.4	373.72	-822.72	1178.2	355.97
180	0.74583	-549.13	1169.7	371.54	-719.9	1404.9	525.49	-699.46	1402.7	209.78	-673.23	1713.2	361.15	-571.06	1009.6	467.99	-604.01	988.12	225.9	-804.37	1011.5	423.62	-806.65	1012.7	333.3	-626.62	923.39	551.94	-697.28	895.1	169.94	-666.42	1084	523.43	-716.35	1080.9	201.89	-823.39	976.29	376.79	-549.51	677.92	522.32	-460.13	607.43	460.9	-531.6	590.2	490.36	-483.24	689.32	496.4	-461.97	527.04	456.37	-485.62	518.69	337.44	-514.87	344.02	472.38	-444.86	289.85	449.59	-512.02	268.03	461.43	-453.23	362.47	463.12	-476.77	89.6	438.42	-458.47	102.38	347.8	-541.84	75.015	389.28	-530.73	43.764	360.53	-537.55	44.498	425.24	-374.33	42.477	470.89	-331.9	46.786	362.3	-284.11	66.545	405.92	-794.58	657.02	242.36	-736.79	545.92	217.21	-793.92	567.13	255.17	-737.11	634.54	200.84	-772.96	479.69	226.35	-713.39	469.26	349.94	-891.57	417.62	226.97	-910.51	308.72	233.14	-945.75	363.53	237.99	-856.34	364.1	223.44	-1077	206.43	267.64	-1055.8	193.63	356.48	-1142.2	238.26	327.75	-1147.6	219.62	365.51	-1168.9	218.68	306.88	-1085.8	73.175	250.69	-1040	59.316	356.7	-1008.6	37.464	297.29	-786.32	1449.9	373.96	-816.81	1178.8	356.29
